<?xml version="1.0" standalone="no"?>
<!DOCTYPE svg PUBLIC "-//W3C//DTD SVG 20010904//EN"
 "http://www.w3.org/TR/2001/REC-SVG-20010904/DTD/svg10.dtd">
<svg version="1.0" xmlns="http://www.w3.org/2000/svg"
 width="512.000000pt" height="512.000000pt" viewBox="0 0 512.000000 512.000000"
 preserveAspectRatio="xMidYMid meet">
<metadata>
Created by potrace 1.14, written by Peter Selinger 2001-2017
</metadata>
<g transform="translate(0.000000,512.000000) scale(0.100000,-0.100000)"
fill="#000000" stroke="none">
<path d="M1615 4863 c-40 -8 -80 -27 -99 -47 -79 -88 -54 -231 61 -343 63 -60
256 -193 340 -232 l51 -25 -48 -48 c-89 -88 -128 -207 -124 -379 3 -112 25
-239 59 -341 14 -40 21 -76 17 -79 -4 -4 -54 -10 -112 -14 -58 -3 -116 -8
-130 -10 -14 -2 -65 -6 -115 -10 -49 -3 -111 -8 -137 -11 -68 -8 -134 -12
-298 -19 -360 -15 -397 -19 -524 -59 -234 -75 -385 -238 -413 -450 -47 -349
146 -648 482 -744 107 -31 129 -34 285 -38 116 -2 159 1 212 15 l67 18 11 -56
c62 -317 152 -544 317 -794 203 -308 480 -535 748 -612 33 -10 67 -20 75 -23
8 -3 28 -7 45 -9 39 -6 45 -17 46 -83 1 -71 4 -93 25 -176 20 -81 40 -120 77
-148 23 -17 30 -18 51 -7 61 33 103 176 115 399 1 6 9 12 19 12 85 0 311 94
448 186 86 58 259 219 330 309 147 184 262 393 340 616 42 123 71 233 90 350
l6 37 52 -14 c113 -29 273 -33 411 -10 52 9 175 51 229 77 166 82 271 204 331
384 39 115 40 286 4 405 -54 173 -223 315 -440 369 -124 31 -147 33 -479 46
-85 4 -171 8 -190 10 -19 2 -69 6 -110 10 -119 9 -201 16 -255 21 -27 2 -90 6
-139 9 -48 3 -92 7 -96 10 -4 2 1 31 12 62 42 125 61 228 64 345 4 187 -32
304 -122 395 -25 25 -44 46 -42 48 2 2 30 18 63 35 175 92 362 243 399 324 43
92 35 184 -20 241 -86 89 -239 57 -358 -76 -92 -103 -247 -355 -269 -438 -4
-17 -11 -21 -29 -16 -101 24 -552 33 -688 14 -107 -15 -113 -15 -115 1 -13 81
-200 374 -301 473 -63 61 -167 102 -229 90z"/>
</g>
</svg>
